<svg width="56" height="55" viewBox="0 0 56 55" fill="none" xmlns="http://www.w3.org/2000/svg">
<circle cx="28.3203" cy="27.5" r="27" fill="white" stroke="#3932E5"/>
<path d="M28.3223 22C33.9444 21.9932 37.7475 24.1878 40.3932 26.5607C41.5068 27.5586 42.0164 29.0605 41.7515 30.4699L41.4866 31.8929C41.2369 33.2234 40.0102 34.1184 38.6216 33.9812L35.8595 33.7103C34.6547 33.592 33.7622 32.6988 33.3842 31.43C32.8713 29.7069 32.5406 28.4295 32.5406 28.4295C31.2083 27.8494 29.7717 27.5574 28.3223 27.5723C26.6114 27.5723 25.3898 27.9409 24.1041 28.4295C24.1041 28.4295 23.7599 29.7086 23.2605 31.43C22.9264 32.5805 22.4101 33.5852 21.2307 33.7052L18.4838 33.9864C17.8148 34.0516 17.1442 33.8811 16.5844 33.5033C16.0246 33.1256 15.6098 32.5636 15.4095 31.9118L14.9911 30.4921C14.7837 29.8126 14.7648 29.0881 14.9366 28.3984C15.1084 27.7087 15.4641 27.0805 15.9646 26.583C18.369 24.2066 22.7087 22.0052 28.3223 22ZM34.1857 28.0472L34.2295 28.2101L34.3949 28.8239C34.54 29.3485 34.7459 30.0858 34.9989 30.9328C35.2301 31.706 35.657 31.9684 36.0214 32.0044L38.7835 32.2753C39.3673 32.3318 39.7537 31.9718 39.8297 31.5723L40.0946 30.1492C40.1649 29.726 40.1265 29.2916 39.9832 28.8879C39.8398 28.4842 39.5963 28.1249 39.2762 27.8449C36.8718 25.6897 33.4517 23.7077 28.3257 23.7146C23.1356 23.7214 19.2211 25.7583 17.1407 27.8123C16.8611 28.0914 16.6633 28.4438 16.5691 28.8304C16.475 29.2169 16.4883 29.6224 16.6075 30.0018L17.0259 31.4231C17.1795 31.9478 17.7346 32.3387 18.315 32.2804L21.0619 31.9992C21.1277 31.9924 21.1497 31.9786 21.153 31.9769C21.186 31.9538 21.2146 31.9247 21.2374 31.8912C21.3555 31.7403 21.4956 31.454 21.6424 30.9465C21.907 30.0323 22.1652 29.1161 22.4168 28.1981L22.4624 28.0318C22.6345 27.4025 23.2352 26.9653 23.5136 26.823C24.8955 26.2984 26.3313 25.8577 28.3223 25.8577C29.9916 25.8431 31.6459 26.1787 33.1817 26.8436C33.4365 26.9499 33.995 27.3305 34.1722 27.9941L34.1755 28.0061L34.1857 28.0472Z" fill="#3932E5"/>
</svg>
