<svg width="55" height="55" viewBox="0 0 55 55" fill="none" xmlns="http://www.w3.org/2000/svg">
<circle cx="27.5" cy="27.5" r="27.0089" fill="#3932E5" stroke="#3932E5" stroke-width="0.982143"/>
<path d="M28.0919 33.7598C29.4199 33.7584 30.6931 33.2258 31.6322 32.2789C32.5712 31.3319 33.0994 30.048 33.1008 28.7088V21.9741C33.1008 20.6345 32.5731 19.3497 31.6337 18.4025C30.6944 17.4552 29.4203 16.9231 28.0919 16.9231C26.7634 16.9231 25.4894 17.4552 24.55 18.4025C23.6107 19.3497 23.0829 20.6345 23.0829 21.9741V28.7088C23.0843 30.048 23.6125 31.3319 24.5515 32.2789C25.4906 33.2258 26.7638 33.7584 28.0919 33.7598ZM24.7526 21.9741C24.7526 21.081 25.1044 20.2245 25.7306 19.593C26.3569 18.9615 27.2062 18.6067 28.0919 18.6067C28.9775 18.6067 29.8269 18.9615 30.4531 19.593C31.0793 20.2245 31.4312 21.081 31.4312 21.9741V28.7088C31.4312 29.6019 31.0793 30.4584 30.4531 31.0899C29.8269 31.7214 28.9775 32.0761 28.0919 32.0761C27.2062 32.0761 26.3569 31.7214 25.7306 31.0899C25.1044 30.4584 24.7526 29.6019 24.7526 28.7088V21.9741ZM28.9267 37.0851V39.6527C28.9267 39.8759 28.8387 40.0901 28.6822 40.2479C28.5256 40.4058 28.3133 40.4945 28.0919 40.4945C27.8705 40.4945 27.6581 40.4058 27.5016 40.2479C27.345 40.0901 27.257 39.8759 27.257 39.6527V37.0851C25.1988 36.8739 23.2914 35.9006 21.9036 34.3534C20.5158 32.8062 19.7462 30.795 19.7437 28.7088C19.7437 28.4855 19.8316 28.2714 19.9882 28.1135C20.1447 27.9556 20.3571 27.8669 20.5785 27.8669C20.7999 27.8669 21.0122 27.9556 21.1688 28.1135C21.3253 28.2714 21.4133 28.4855 21.4133 28.7088C21.4133 30.4949 22.1169 32.2079 23.3694 33.4709C24.6219 34.7339 26.3206 35.4435 28.0919 35.4435C29.8631 35.4435 31.5619 34.7339 32.8143 33.4709C34.0668 32.2079 34.7704 30.4949 34.7704 28.7088C34.7704 28.4855 34.8584 28.2714 35.015 28.1135C35.1715 27.9556 35.3839 27.8669 35.6053 27.8669C35.8267 27.8669 36.039 27.9556 36.1956 28.1135C36.3521 28.2714 36.4401 28.4855 36.4401 28.7088C36.4375 30.795 35.668 32.8062 34.2801 34.3534C32.8923 35.9006 30.9849 36.8739 28.9267 37.0851Z" fill="white"/>
</svg>
