<svg width="56" height="55" viewBox="0 0 56 55" fill="none" xmlns="http://www.w3.org/2000/svg">
<path d="M28.1152 0C22.6763 0 17.3594 1.61285 12.8371 4.63458C8.31471 7.65632 4.78997 11.9512 2.70856 16.9762C0.62715 22.0012 0.0825581 27.5305 1.14365 32.865C2.20474 38.1995 4.82387 43.0995 8.66981 46.9454C12.5158 50.7914 17.4158 53.4105 22.7503 54.4716C28.0847 55.5327 33.6141 54.9881 38.639 52.9067C43.664 50.8253 47.9589 47.3005 50.9806 42.7782C54.0024 38.2558 55.6152 32.939 55.6152 27.5C55.6061 20.2093 52.7059 13.2199 47.5506 8.06461C42.3953 2.90933 35.4059 0.00909628 28.1152 0ZM16.4806 30.6731C15.8531 30.6731 15.2396 30.487 14.7178 30.1383C14.196 29.7896 13.7892 29.2941 13.5491 28.7143C13.3089 28.1345 13.2461 27.4965 13.3685 26.881C13.491 26.2654 13.7932 25.7001 14.2369 25.2563C14.6807 24.8125 15.2461 24.5103 15.8616 24.3879C16.4771 24.2655 17.1151 24.3283 17.6949 24.5685C18.2747 24.8086 18.7703 25.2153 19.1189 25.7371C19.4676 26.2589 19.6537 26.8724 19.6537 27.5C19.6537 28.3415 19.3194 29.1486 18.7243 29.7437C18.1293 30.3388 17.3222 30.6731 16.4806 30.6731ZM28.1152 30.6731C27.4877 30.6731 26.8742 30.487 26.3524 30.1383C25.8306 29.7896 25.4239 29.2941 25.1837 28.7143C24.9435 28.1345 24.8807 27.4965 25.0031 26.881C25.1256 26.2654 25.4278 25.7001 25.8715 25.2563C26.3153 24.8125 26.8807 24.5103 27.4962 24.3879C28.1117 24.2655 28.7497 24.3283 29.3295 24.5685C29.9093 24.8086 30.4049 25.2153 30.7536 25.7371C31.1022 26.2589 31.2883 26.8724 31.2883 27.5C31.2883 28.3415 30.954 29.1486 30.3589 29.7437C29.7639 30.3388 28.9568 30.6731 28.1152 30.6731ZM39.7499 30.6731C39.1223 30.6731 38.5088 30.487 37.987 30.1383C37.4652 29.7896 37.0585 29.2941 36.8183 28.7143C36.5782 28.1345 36.5153 27.4965 36.6377 26.881C36.7602 26.2654 37.0624 25.7001 37.5062 25.2563C37.9499 24.8125 38.5153 24.5103 39.1308 24.3879C39.7463 24.2655 40.3843 24.3283 40.9641 24.5685C41.5439 24.8086 42.0395 25.2153 42.3882 25.7371C42.7368 26.2589 42.9229 26.8724 42.9229 27.5C42.9229 28.3415 42.5886 29.1486 41.9936 29.7437C41.3985 30.3388 40.5914 30.6731 39.7499 30.6731Z" fill="#3932E5"/>
</svg>
