<svg width="56" height="55" viewBox="0 0 56 55" fill="none" xmlns="http://www.w3.org/2000/svg">
<circle cx="27.9102" cy="27.5" r="27.5" fill="#3932E5"/>
<path d="M16.7456 21.0804C16.7456 20.4141 17.0103 19.7752 17.4814 19.3041C17.9525 18.833 18.5914 18.5684 19.2576 18.5684H36.5626C37.2289 18.5684 37.8678 18.833 38.3389 19.3041C38.81 19.7752 39.0747 20.4141 39.0747 21.0804V33.9196C39.0747 34.2495 39.0097 34.5761 38.8834 34.8809C38.7572 35.1857 38.5722 35.4626 38.3389 35.6959C38.1056 35.9291 37.8287 36.1142 37.524 36.2404C37.2192 36.3666 36.8925 36.4316 36.5626 36.4316H19.2576C18.9277 36.4316 18.6011 36.3666 18.2963 36.2404C17.9915 36.1142 17.7146 35.9291 17.4814 35.6959C17.2481 35.4626 17.0631 35.1857 16.9368 34.8809C16.8106 34.5761 16.7456 34.2495 16.7456 33.9196V21.0804ZM19.2576 20.243C19.0355 20.243 18.8226 20.3313 18.6655 20.4883C18.5085 20.6453 18.4203 20.8583 18.4203 21.0804V33.9196C18.4203 34.3818 18.7954 34.7569 19.2576 34.7569H36.5626C36.7847 34.7569 36.9977 34.6687 37.1547 34.5117C37.3118 34.3546 37.4 34.1417 37.4 33.9196V21.0804C37.4 20.8583 37.3118 20.6453 37.1547 20.4883C36.9977 20.3313 36.7847 20.243 36.5626 20.243H19.2576ZM27.9101 22.1912C28.1321 22.1914 28.345 22.2798 28.5019 22.4369L32.1359 26.0709C32.2182 26.1476 32.2842 26.24 32.3299 26.3427C32.3757 26.4455 32.4003 26.5563 32.4023 26.6688C32.4043 26.7812 32.3836 26.8929 32.3415 26.9971C32.2994 27.1014 32.2367 27.1961 32.1572 27.2756C32.0777 27.3551 31.9829 27.4178 31.8787 27.4599C31.7744 27.502 31.6627 27.5227 31.5503 27.5207C31.4379 27.5188 31.327 27.4941 31.2243 27.4484C31.1216 27.4026 31.0291 27.3366 30.9525 27.2544L28.7475 25.0505V32.2483C28.7475 32.4703 28.6593 32.6833 28.5022 32.8403C28.3452 32.9974 28.1322 33.0856 27.9101 33.0856C27.6881 33.0856 27.4751 32.9974 27.318 32.8403C27.161 32.6833 27.0728 32.4703 27.0728 32.2483V25.0527L24.8734 27.2544C24.7967 27.3366 24.7043 27.4026 24.6016 27.4484C24.4989 27.4941 24.388 27.5188 24.2755 27.5207C24.1631 27.5227 24.0514 27.502 23.9472 27.4599C23.8429 27.4178 23.7482 27.3551 23.6687 27.2756C23.5892 27.1961 23.5265 27.1014 23.4844 26.9971C23.4423 26.8929 23.4216 26.7812 23.4236 26.6688C23.4256 26.5563 23.4502 26.4455 23.4959 26.3427C23.5417 26.24 23.6077 26.1476 23.6899 26.0709L27.3184 22.438C27.4753 22.2809 27.6881 22.1914 27.9101 22.1912Z" fill="white"/>
</svg>
