<svg width="35" height="35" viewBox="0 0 35 35" fill="none" xmlns="http://www.w3.org/2000/svg">
<path id="Vector 7" d="M31.3701 26.0387V34.6921C28.8475 35.1533 22.9048 35.4432 19.3145 32.9131C18.0459 32.1444 14.9631 29.8163 12.7808 26.6536C12.0841 25.5043 10.6908 22.4016 10.6908 19.1863C10.7348 17.4512 11.7952 13.6077 15.6847 12.1142C16.1393 11.9166 17.8142 11.5212 20.8765 11.5212C21.1038 11.2797 21.7125 10.7965 22.3284 10.7965C22.7538 10.7745 23.7232 10.9326 24.1984 11.7409C24.3817 11.9971 24.6384 12.7687 24.1984 13.8054C24.0664 14.1568 23.5076 14.8596 22.3284 14.8596C21.7125 14.801 20.4805 14.3325 20.4805 12.9269C19.4392 13.044 17.1718 13.7439 16.4326 15.6063C16.1247 16.6679 16.1467 19.1116 18.6986 20.3942C20.5025 21.3386 23.8024 22.2611 26.6623 19.1863C27.7858 17.9783 28.6202 14.8596 27.3223 11.7409C26.3808 9.47875 25.0783 8.35672 23.8024 7.39224C22.8344 6.66056 20.0845 5.4024 15.5087 5.78895C12.8688 6.0525 7.46575 8.11701 6.97296 14.2666C6.81897 15.9431 7.08296 20.3635 9.37088 24.6331C11.0892 27.8396 15.1699 32.4431 20.6785 34.6921C18.6472 34.6921 13.3703 34.0595 8.51291 31.5294C5.58701 30.0054 -1.44232 20.3942 0.263218 12.9269C1.45273 7.71881 3.30842 5.29663 6.40098 2.75807C9.37088 0.320198 14.988 -0.529032 19.3145 0.320198C23.6411 1.16943 32.2941 5.51661 32.2941 16.1115C32.2941 17.6562 32.8353 21.5231 35 24.6331L31.3701 26.0387Z" fill="url(#paint0_linear_0_42)"/>
<defs>
<linearGradient id="paint0_linear_0_42" x1="17" y1="11.5" x2="17" y2="46" gradientUnits="userSpaceOnUse">
<stop stop-color="#9BDBFF"/>
<stop offset="1" stop-color="#A373FC"/>
</linearGradient>
</defs>
</svg>
